/* XPM */
static char * block_xpm[] = {
"64 64 17 1",
" 	c #FFFFFF",
".	c #EFEFEF",
"+	c #7F7F7F",
"@	c #202020",
"#	c #000000",
"$	c #101010",
"%	c #DFDFDF",
"&	c #808080",
"*	c #FFFF00",
"=	c #C0C0C0",
"-	c #808000",
";	c #000080",
">	c #800000",
",	c #00FFFF",
"'	c #0000FF",
")	c #FF0000",
"!	c #FF00FF",
"    .+@##################################################$+%    ",
"   %@######################################################$%   ",
"  %@###$++++++++++++++++++++++++++++++++++++++++++++++++@###$%  ",
" %@##$+%.................................................+@##$% ",
"%@##$%.....................................................@##@%",
"&##$%.......................................................@##+",
"@##+........................................................+##@",
"##@%........................................................%@##",
"##+..........................................................+##",
"##+..........................................................+##",
"##+..........................................................+##",
"##+..........................................................+##",
"##+..........................................................+##",
"##+..........................................................+##",
"##+..........................................................+##",
"##+..........................................................+##",
"##+..........................................................+##",
"##+..........................................................+##",
"##+..................&&&&&&&&&...............................+##",
"##+.................&         &..............................+##",
"##+................& *=*=*=*=*=&.............................+##",
"##+...............& *=*=*=*=*=*=&............................+##",
"##+..............&===============&&&&&&&&&&&&&&..............+##",
"##+..............&                             #.............+##",
"##+..............& *=*=*=*=*=*=*=*=*=*=*=*=*=*=-.............+##",
"##+..............& =*=*=*=*=*=*=*=*&&&&#*=*=*=*-.............+##",
"##+..............& *=*=*=*=*=*=*=*=& =&#=*=*=*=-.............+##",
"##+..............& =*=*=*=*=*=*=*=*&==&#*=*=*=*-.............+##",
"##+..............& *=*=*&&=*&&&&&&&&==&#=*=*=*=-.............+##",
"##+..............& =*=*&  &&       #==&#*=*=*=*-.............+##",
"##+..............& *=*=& =  ======= #=#*=*=*=*=-.............+##",
"##+..............& =*=*&==&&=====&&& ##=*=*=*=*-.............+##",
"##+..............& *=*=&&&##&&=&&###&##*=*=*=*=-.............+##",
"##+..............& =*=*=##*=##=##=*=###=*=*=*=*-.............+##",
"##+..............& *=*=*=*=*=#=#=*=*&=#*=*=*=*=-.............+##",
"##+..............& =*=*=*=*=*#=#*=*=&=#=*=*=*=*-.............+##",
"##+..............& *=*=*=*=*=#=#=*=*&=#*=*=*=*=-.............+##",
"##+..............& =*=*=*=*=*;;;*=*=>>>=*=*=*=*-.............+##",
"##+..............& *=*=*=*=*;=,'#*=> =)#=*=*=*=-.............+##",
"##+..............& =*=*=*=*=;,';#=*>!)>#*=*=*=*-.............+##",
"##+..............& *=*=*=*=*;,';#*=>!)>#=*=*=*=-.............+##",
"##+..............& =*=*=*=*=;,';#=*>!)>#*=*=*=*-.............+##",
"##+..............& *=*=*=*=*=*=*=*=*=*=*=*=*=*=-.............+##",
"##+..............&------------------------------.............+##",
"##+...............##############################.............+##",
"##+..........................................................+##",
"##+..........................................................+##",
"##+..........................................................+##",
"##+..........................................................+##",
"##+..........................................................+##",
"##+..........................................................+##",
"##+..........................................................+##",
"##+..........................................................+##",
"##+..........................................................+##",
"##+..........................................................+##",
"##+..........................................................&##",
"##@%........................................................%@##",
"@##+........................................................&##@",
"+##@%......................................................%@##+",
"%@##@%....................................................%@##@%",
" .@##$+%.................................................+@##$% ",
"  .@###$++++++++++++++++++++++++++++++++++++++++++++++++@###$%  ",
"   .@######################################################$%   ",
"    .+@##################################################$+%    "};
