/* XPM */
static char *nodeLUTDecoder_xpm[] = {
/* columns rows colors chars-per-pixel */
"32 32 8 1",
"  c black",
". c red",
"X c green",
"o c yellow",
"O c blue",
"+ c #808080",
"@ c #8080C0",
"# c gray100",
/* pixels */
"XXX                          XXX",
"X  ##########################  X",
"X ############################ X",
" ##################OO#####OO### ",
" ##################O##+O+##O### ",
" ##################O##O#O##O### ",
" #######OOO########O##O#O##O### ",
" ######OO@OO#######O##O#O##O### ",
" #####OO###OO######O##+O+##O### ",
" ##########OO######O#######O### ",
" #########OO#######O##+O###O### ",
" ########OO########O##OO###O### ",
" #######OO#########O###O###O### ",
" ######OO##########O###O###O### ",
" #####OOOOOOO######O##OOO##O### ",
" #####@@@@@@@######O#######O### ",
" ##################O##+O+##O### ",
" ##########o#######O##O#O##O### ",
" ##########.o######O##O#O##O### ",
" ###########.o#####O##O#O##O### ",
" ###ooooooooo.o####O##+O+##O### ",
" ####..........####O#######O### ",
" ###########o.#####O##+O+##O### ",
" ##########o.######O##O#O##O### ",
" ##########.#######O##O#O##O### ",
" ##################O##O#O##O### ",
" ##################O##+O+##O### ",
" ##################O#######O### ",
" ##################OO#####OO### ",
"X ############################ X",
"X  ##########################  X",
"XXX                          XXX"
};
