/* XPM */
static char *nodeMATSink_xpm[] = {
/* columns rows colors chars-per-pixel */
"32 32 8 1",
"  c black",
". c red",
"X c green",
"o c #808000",
"O c yellow",
"+ c #808080",
"@ c #C0C0C0",
"# c gray100",
/* pixels */
"XXXXXXXXXXXXXXXXXXXXXXXXXXXXXXXX",
"XXXXX+++++++++XXXXXXXXXXXXXXXXXX",
"XXXX+#########+XXXXXXXXXXXXXXXXX",
"XXX+#O@O@O@O@O@+XXXXXXXXXXXXXXXX",
"XX+#O@O@O@O@O@O@+XXXXXXXXXXXXXXX",
"X+@@@@@@@@@@@@@@@++++++++++++XXX",
"X+########################### XX",
"X+#O@O@O@O@O@O@O@O@O@O@O@O@O@o X",
"X+#@O@O@O@O@O@O@O@O@O@O@O@O@Oo X",
"X+#O@O@O@O@O@O@O@O@O@O@O@O@O@o X",
"X+#@O@O@O@O@O@O@O@O@O@O@O@O@Oo X",
"X+#O@O@O@O@O@O@O@O@O@O@O@O@O@o X",
"X+#@O@O@O@O@O@O@O@O@O@O@O@O@Oo X",
"X+#...@O@...@O@O..@O@........o X",
"X+#...O@O...O@O....@O@O@..O@Oo X",
"X+#....O....@O@....O@O@O..@O@o X",
"X+#..@.@.@..O@O.O@.@O@O@..O@Oo X",
"X+#..O...O..@O..@O..@O@O..@O@o X",
"X+#..@O.O@..O@......O@O@..O@Oo X",
"X+#..O@O@O..@O..@O..@O@O..@O@o X",
"X+#..@O@O@..O..@O@O..@O@..O@Oo X",
"X+#O@O@O@O@O@O@O@O@O@O@O@O@O@o X",
"X+#@O@O@O@O@O@O@O@O@O@O@O@O@Oo X",
"X+#O@O@O@O@O@O@O@O@O@O@O@O@O@o X",
"X+#@O@O@O@O@O@O@O@O@O@O@O@O@Oo X",
"X+#O@O@O@O@O@O@O@O@O@O@O@O@O@o X",
"X+#@O@O@O@O@O@O@O@O@O@O@O@O@Oo X",
"X+#O@O@O@O@O@O@O@O@O@O@O@O@O@o X",
"X++++++++++++++++++++++++++++o X",
"XX                            XX",
"XXXXXXXXXXXXXXXXXXXXXXXXXXXXXXXX",
"XXXXXXXXXXXXXXXXXXXXXXXXXXXXXXXX"
};
