/* XPM */
static char *nodeLua_xpm[] = {
/* columns rows colors chars-per-pixel */
"32 32 15 1",
"  c black",
". c #000040",
"X c yellow",
"o c navy",
"O c #202080",
"+ c #404080",
"@ c #4040C0",
"# c #6060C0",
"$ c #8080C0",
"% c #A0A0C0",
"& c #A6CAF0",
"* c #C0C0C0",
"= c #C0DCC0",
"- c #FFFBF0",
"; c gray100",
/* pixels */
"XXX                          XXX",
"X  ;;;;;;;;;;;;;;;;;;;;;;;;;;  X",
"X ;;;;;;;;;;;;;;;;;;;;;;;...;; X",
" ;;;;;;;;;;;;;;;;;;;;;;;ooooo;; ",
" ;;;;;;;;;;;;;;;;;;;;;;oooooo.; ",
" ;;;;;;;;;;;;;;;;;;;;;;oooooo.; ",
" ;;;;;;;;;.ooooooo.;;;;oooooo.; ",
" ;;;;;;;.ooooooooooo.;;.ooooo;; ",
" ;;;;;;ooooooooooooooo;;.ooo;;; ",
" ;;;;;ooooooooooo#**%+o;;;;;;;; ",
" ;;;;ooooooooooo#-;;;-+o;;;;;;; ",
" ;;;.ooooooooooO&;;;;;%o.;;;;;; ",
" ;;;oooooooooooO-;;;;;*oo;;;;;; ",
" ;;.oooooooooooO=;;;;;%oo.;;;;; ",
" ;;ooooooooooooo$;;;;-@ooo;;;;; ",
" ;;ooo+Oooooooooo$=-*#oooo;;;;; ",
" ;;ooo$$ooooooooooOOoooooo;;;;; ",
" ;;ooo%#ooooOooOOoo+#+oooo;;;;; ",
" ;;ooo%#oooo%Oo+%o$%$*@ooo;;;;; ",
" ;;ooo%#oooo%Oo+%o#Oo$$ooo;;;;; ",
" ;;ooo%#oooo%Oo+%o#%%*$ooo;;;;; ",
" ;;.oo%$oooo%Oo#%O*+O$$oo.;;;;; ",
" ;;;oo$*$$$O%$+%%O*#@*%oo;;;;;; ",
" ;;;.o+####OO$$++o@$$+$O.;;;;;; ",
" ;;;;ooooooooooooooooooo;;;;;;; ",
" ;;;;;ooooooooooooooooo;;;;;;;; ",
" ;;;;;;ooooooooooooooo;;;;;;;;; ",
" ;;;;;;;.ooooooooooo.;;;;;;;;;; ",
" ;;;;;;;;;.ooooooo.;;;;;;;;;;;; ",
"X ;;;;;;;;;;;;;;;;;;;;;;;;;;;; X",
"X  ;;;;;;;;;;;;;;;;;;;;;;;;;;  X",
"XXX                          XXX"
};
