/* XPM */
static char *nodeConversion_xpm[] = {
/* columns rows colors chars-per-pixel */
"32 32 7 1",
"  c black",
". c red",
"X c green",
"o c blue",
"O c #808080",
"+ c #C0C0C0",
"@ c gray100",
/* pixels */
"XXX                          XXX",
"X  @@@@@@@@@@@@@@@@@@@@@@@@@@  X",
"X @++++++++++++++++++++++++++@ X",
" @++OOOOOOOOOOOOOOOOOOOOOOOO++O ",
" @+O                        @+O ",
" @+O ++++++++++++++++++++++ @+O ",
" @+O +++++++++++  +++++  ++ @+O ",
" @+O +++ooo+++++ ++O O++ ++ @+O ",
" @+O ++o+++o++++ ++ + ++ ++ @+O ",
" @+O ++++++o++++ ++ + ++ ++ @+O ",
" @+O +++++o+++++ ++ + ++ ++ @+O ",
" @+O ++++o++++++ ++O O++ ++ @+O ",
" @+O +++o+++++++ +++++++ ++ @+O ",
" @+O ++o++++++++ ++O +++ ++ @+O ",
" @+O ++ooooo++++ ++  +++ ++ @+O ",
" @+O +++++++++++ +++ +++ ++ @+O ",
" @+O +++++++.+++ +++ +++ ++ @+O ",
" @+O ++++++++.++ ++   ++ ++ @+O ",
" @+O ++........+ +++++++ ++ @+O ",
" @+O ++++++++.++ ++O O++ ++ @+O ",
" @+O +++++++.+++ ++ + ++ ++ @+O ",
" @+O +++++++++++ ++ + ++ ++ @+O ",
" @+O +++++++++++ ++ + ++ ++ @+O ",
" @+O +++++++++++ ++O O++ ++ @+O ",
" @+O +++++++++++ +++++++ ++ @+O ",
" @+O +++++++++++  +++++  ++ @+O ",
" @+O ++++++++++++++++++++++ @+O ",
" @+O                        @+O ",
" @++@@@@@@@@@@@@@@@@@@@@@@@@++O ",
"X @++++++++++++++++++++++++++O X",
"X  OOOOOOOOOOOOOOOOOOOOOOOOOO  X",
"XXX                          XXX"
};
