/* XPM */
static char *nodeBoosting_xpm[] = {
/* columns rows colors chars-per-pixel */
"32 32 7 1",
"  c black",
". c #800000",
"X c red",
"o c yellow",
"O c blue",
"+ c cyan",
"@ c #C0C0C0",
/* pixels */
"ooo                          ooo",
"o  @@@@@@@@@@@@@@@@@@@@@@@@@@  o",
"o @@@@@@@@@@@@@@@@@@@@@@@@@@@@ o",
" @@@@@@@@@@@@@@@@@@@@@@@@@@@@@@ ",
" @@@@@@@@@@@@@@@@@@@@@@@@@@@@@@ ",
" @@@@@@@@@@@@@@@@@@@@@@@@@@@@@@ ",
" @@@@@@@@@@@@@@@@@@@@@@@@@@@@@@ ",
" @XXXXXXXXXX@@@@@@@@@@@@@@@@@@@ ",
" @X..........@@@@@@@@+@@@@@@@@@ ",
" @X.@@@@@@@X.@@@@@@@@+O@@@@@@@@ ",
" @X.@@@@@@@@@@@@@@@@@+O@@@@@@@@ ",
" @@X.@@@@@@@@@@@@@@@@+O@@@@@@@@ ",
" @@X.@@@@@@@@@@@@@@@@+O@@@@@@@@ ",
" @@@X.@@@@@@@@@@@+++++O++++@@@@ ",
" @@@@X.@@@@@@@@@@+OOOOOOOOOO@@@ ",
" @@@@@X.@@@@@@@@@+O@@@@@@@+O@@@ ",
" @@@@X.@@@@@@@@@@+O@@@@@@@+O@@@ ",
" @@@X.@@@@@@@@@@@+O@@@@@@@+O@@@ ",
" @@X.@@@@@@@@@@+++O+@@@@+++O+@@ ",
" @@X.@@@@@@@@@@+OOOOO@@@+OOOOO@ ",
" @X.@@@@@@@X@@@+O@@+O@@@+O@@+O@ ",
" @X.XXXXXXXX.@@@O@@@O@@@@O@@@O@ ",
" @@..........@@@@@@@@@@@@@@@@@@ ",
" @@@@@@@@@@@@@@@@@@@@@@@@@@@@@@ ",
" @@@@@@@@@@@@@@@@@@@@@@@@@@@@@@ ",
" @@@@@@@@@@@@@@@@@@@@@@@@@@@@@@ ",
" @@@@@@@@@@@@@@@@@@@@@@@@@@@@@@ ",
" @@@@@@@@@@@@@@@@@@@@@@@@@@@@@@ ",
" @@@@@@@@@@@@@@@@@@@@@@@@@@@@@@ ",
"o @@@@@@@@@@@@@@@@@@@@@@@@@@@@ o",
"o  @@@@@@@@@@@@@@@@@@@@@@@@@@  o",
"ooo                          ooo"
};
