/* XPM */
static char *nodeLogistic_xpm[] = {
/* columns rows colors chars-per-pixel */
"32 32 5 1",
"  c black",
". c yellow",
"X c blue",
"o c cyan",
"O c #C0C0C0",
/* pixels */
"...                          ...",
".  OOOOOOOOOOOOOOOOOOOOOOOOOO  .",
". OOOOOOOOOOOOOOOOOOOOOOOOOOOO .",
" OOOOOOOOOOOOOO OOOOOOOOOOOOOOO ",
" OOOOOOOOOOOOO   OOOOOOOOOOOOOO ",
" OOOOOOOOOOOO O O OOOOOOOOOOOOO ",
" OOOOOOOOOOOOOO OOOOOOOOOooooOO ",
" OOOOOOOOOOOOOO OOOOOOoooXXXXOO ",
" OOOOOOOOOOOOOO OOOOooXXXOOOOOO ",
" OOOOOOOOOOOOOO OOOoXXOOOOOOOOO ",
" OOOOOOOOOOOOOO OOoXOOOOOOOOOOO ",
" OOOOOOOOOOOOOO OoXOOOOOOOOOOOO ",
" OOOOOOOOOOOOOO oXOOOOOOOOOOOOO ",
" OOOOOOOOOOOOOO oOOOOOOOOO OOOO ",
" OOOOOOOOOOOOOO XOOOOOOOOOO OOO ",
" OO                          OO ",
" OOOOOOOOOOOOOo OOOOOOOOOOO OOO ",
" OOOOOOOOOOOOOX OOOOOOOOOO OOOO ",
" OOOOOOOOOOOOoX OOOOOOOOOOOOOOO ",
" OOOOOOOOOOOoXO OOOOOOOOOOOOOOO ",
" OOOOOOOOOOoXOO OOOOOOOOOOOOOOO ",
" OOOOOOOOooXOOO OOOOOOOOOOOOOOO ",
" OOOOOoooXXOOOO OOOOOOOOOOOOOOO ",
" OooooXXXOOOOOO OOOOOOOOOOOOOOO ",
" OXXXXOOOOOOOOO OOOOOOOOOOOOOOO ",
" OOOOOOOOOOOOOO OOOOOOOOOOOOOOO ",
" OOOOOOOOOOOOOO OOOOOOOOOOOOOOO ",
" OOOOOOOOOOOOOO OOOOOOOOOOOOOOO ",
" OOOOOOOOOOOOOO OOOOOOOOOOOOOOO ",
". OOOOOOOOOOOOOOOOOOOOOOOOOOOO .",
".  OOOOOOOOOOOOOOOOOOOOOOOOOO  .",
"...                          ..."
};
