/* XPM */
static char *nodeWeighting_xpm[] = {
/* columns rows colors chars-per-pixel */
"32 32 6 1",
"  c black",
". c #800000",
"X c red",
"o c yellow",
"O c blue",
"+ c gray100",
/* pixels */
"ooo                          ooo",
"o  ++++++++++++++++++++++++++  o",
"o ++++++++++++++++++++++++++++ o",
" ++++++++++++++++++++++++++++++ ",
" ++++++++++++++++++++++++++++++ ",
" +++++OO+++O+OO+++++OOO++OO++++ ",
" ++++OOO++OO+OO++++++OOOO+O++++ ",
" +++++OO+OOO++O+++++++OO+++++++ ",
" +++++OOO+OO+O++++++++OO+++++++ ",
" +++++OOO+OOO+++++++++OO+++++++ ",
" +++++OO++OO+++OO++O+O+OO+O++++ ",
" +++++O+++O++++OO++OO++OOO+++++ ",
" ++++++++++++++++++++++++++++++ ",
" ++++++++++++++++++++++++++++++ ",
" ++++++++++++++++++++++++++++++ ",
" +++++++X.++++++++++++X.+++++++ ",
" ++++++X.X.++++++++++X.X.++++++ ",
" ++++++.X.X++++++++++.X.X++++++ ",
" ++++++X.X.++++++++++X.X.++++++ ",
" ++++++.X.X++++++++++.X.X++++++ ",
" ++++  X.X.          X.X.  ++++ ",
" ++++  .X.X          .X.X  ++++ ",
" ++++  X.X.          X.X.  ++++ ",
" ++++++.X.X++++++++++.X.X++++++ ",
" ++++++X.X.++++++++++X.X.++++++ ",
" ++++++.X.X++++++++++.X.X++++++ ",
" ++++++X.X.++++++++++X.X.++++++ ",
" +++++++X.++++++++++++X.+++++++ ",
" ++++++++++++++++++++++++++++++ ",
"o ++++++++++++++++++++++++++++ o",
"o  ++++++++++++++++++++++++++  o",
"ooo                          ooo"
};
