/* XPM */
static char *nodePCA_xpm[] = {
/* columns rows colors chars-per-pixel */
"32 32 5 1",
"  c black",
". c red",
"X c green",
"o c blue",
"O c #C0C0C0",
/* pixels */
"XXX                          XXX",
"X  OOOOOOOOOOOOOOOOOOOOOOOOOO  X",
"X OOOOOOOOOOOOooOOOOOOOOOOOOOO X",
" OOOOOOOOOOOOooooOOOOOOOOOOOOOO ",
" OOOOOOOOOOOooooooOOOOOOOOOOOOO ",
" OOOOOOOOOOooOooOooOOOOO.....OO ",
" OOOOOOOOOOoOOooOOoOOOO......OO ",
" OOOOOOOOOOOOOooOOOOOOOOO....OO ",
" OOOOOOOOOOOOOooOOOOOOOO.....OO ",
" OOOOO.....OOOooOOOOOOO...O..OO ",
" OOOOO......OOooOOOOOO...OO.OOO ",
" OOOOO....OOOOooOOOOO...OOOOOOO ",
" OOOOO.....OOOooOOOO...OooOOOOO ",
" OOOOO..O...OOooOOO...OOOooOOOO ",
" OOOOOO.OO...OooOO...OOOOOooOOO ",
" Oooooooooo...ooo...oooooooooOO ",
" Ooooooooooo...o...oooooooooOOO ",
" OOOOOOOOOOOO.....OOOOOOOooOOOO ",
" OOOOOOOOOOOOO...OOOOOOOooOOOOO ",
" OOOOOOOOOOOO.....OOOOOOOOOOOOO ",
" OOOOOOOOOOO...o...OOOOOOOOOOOO ",
" OOOOOOOOOO...ooO...OOOOOOOOOOO ",
" OOOOOOOOO...OooOO...OOOOOOOOOO ",
" OOOOOOOO...OOooOOO...OOOOOOOOO ",
" OOOOOOO...OOOooOOOO...OOOOOOOO ",
" OOOOOO...OOOOooOOOOO...OOOOOOO ",
" OOOOO...OOOOOooOOOOOO..OOOOOOO ",
" OOOO...OOOOOOooOOOOOOOOOOOOOOO ",
" OOO...OOOOOOOooOOOOOOOOOOOOOOO ",
"X OO..OOOOOOOOooOOOOOOOOOOOOOO X",
"X  OOOOOOOOOOOOOOOOOOOOOOOOOO  X",
"XXX                          XXX"
};
