/* XPM */
static char *nodeFilter_xpm[] = {
/* columns rows colors chars-per-pixel */
"32 32 10 1",
"  c black",
". c green",
"X c #808000",
"o c yellow",
"O c navy",
"+ c blue",
"@ c cyan",
"# c #808080",
"$ c #C0C0C0",
"% c gray100",
/* pixels */
"...                          ...",
".  %%%%%%%%%%%%%%%%%%%%%%%%%%  .",
". %$$$$$$$$$$$$$$$$$$$$$$$$$$% .",
" %$$########################$$# ",
" %$#                        %$# ",
" %$# $$$$$$$$$$$$$$$$$$$$$$ %$# ",
" %$# $$$$$$$$$$$$$$$$$$$$$$ %$# ",
" %$# $$$$$$$$$$$$$$$$$$$$$$ %$# ",
" %$# $$$$$$$        $$$$$$$ %$# ",
" %$# $$$$   XXoXoooo   $$$$ %$# ",
" %$# $$$ XXXXoXoooooooo $$$ %$# ",
" %$# $$$    XXoooooo    $$$ %$# ",
" %$# $$$ +++        OOO $$$ %$# ",
" %$# $$$ @+@+++O+O++OOO $$$ %$# ",
" %$# $$$ +++++++O+O+OOO $$$ %$# ",
" %$# $$$$ @++++O+++OOO $$$$ %$# ",
" %$# $$$$$ ++++++O+OO $$$$$ %$# ",
" %$# $$$$$$ ++++O+OO $$$$$$ %$# ",
" %$# $$$$$$$ ++++OO $$$$$$$ %$# ",
" %$# $$$$$$$$ ++OO $$$$$$$$ %$# ",
" %$# $$$$$$$$$ +O $$$$$$$$$ %$# ",
" %$# $$$$$$$$$ +O $$$$$$$$$ %$# ",
" %$# $$$$$$$$$ +O $$$$$$$$$ %$# ",
" %$# $$$$$$$$$ +O $$$$$$$$$ %$# ",
" %$# $$$$$$$$$$  $$$$$$$$$$ %$# ",
" %$# $$$$$$$$$$$$$$$$$$$$$$ %$# ",
" %$# $$$$$$$$$$$$$$$$$$$$$$ %$# ",
" %$#                        %$# ",
" %$$%%%%%%%%%%%%%%%%%%%%%%%%$$# ",
". %$$$$$$$$$$$$$$$$$$$$$$$$$$# .",
".  ##########################  .",
"...                          ..."
};
