/* XPM */
static char *nodeDitherPlot_xpm[] = {
/* columns rows colors chars-per-pixel */
"32 32 9 1",
"  c #000000",
". c #FF0000",
"X c #008000",
"o c #00FF00",
"O c #FFFF00",
"+ c #0000FF",
"@ c #808080",
"# c #C0C0C0",
"$ c #FFFFFF",
/* pixels */
"OOO                          OOO",
"O  $$$$$$$$$$$$$$$$$$$$$$$$$$  O",
"O $##########################$ O",
" $##@@@@@@@@@@@@@@@@@@@@@@@@##@ ",
" $#@                        $#@ ",
" $#@ ###X###X###X###X###X## $#@ ",
" $#@ ###X###X###X###X#o#Xo# $#@ ",
" $#@ XXXXX.XXXXXXXXXXXXXXXX $#@ ",
" $#@ ###X###X###X###X###o## $#@ ",
" $#@ #.#X###X###X###X##oX## $#@ ",
" $#@ ###X.##X###X###X###Xo# $#@ ",
" $#@ XXXXXXXXXXXXXXXXXoXXXX $#@ ",
" $#@ ##..###X###X###X###X## $#@ ",
" $#@ ###X###X#+#X###X##oX## $#@ ",
" $#@ ###X.##X###X###X###Xo# $#@ ",
" $#@ XXXXXXXXXXXXXXXXXXXXXX $#@ ",
" $#@ ###X#.#X###+###X###X## $#@ ",
" $#@ ###X.##X##+X#+#X###X## $#@ ",
" $#@ ###X###X###X###X###X## $#@ ",
" $#@ XXXXXXXXXXXXXXXXXXXXXX $#@ ",
" $#@ ###X###X#+#X###X###X## $#@ ",
" $#@ ###X###X###X+##X###X## $#@ ",
" $#@ ###X###X###+###X###X## $#@ ",
" $#@ XXXXXXXXXXXXXXXXXXXXXX $#@ ",
" $#@ ###X###X###X###X###X## $#@ ",
" $#@ ###X###X##+X+##X###X## $#@ ",
" $#@ ###X###X###X###X###X## $#@ ",
" $#@                        $#@ ",
" $##$$$$$$$$$$$$$$$$$$$$$$$$##@ ",
"O $##########################@ O",
"O  @@@@@@@@@@@@@@@@@@@@@@@@@@  O",
"OOO                          OOO"
};
