/* XPM */
static char *nodeProjection_xpm[] = {
/* columns rows colors chars-per-pixel */
"32 32 5 1",
"  c black",
". c red",
"X c yellow",
"o c blue",
"O c gray100",
/* pixels */
"XXX                          XXX",
"X  OOOOOOOOOOOOOOOOOOOOOOOOOO  X",
"X OOOOOOOOOOOOooOOOOOOOOOOOOOO X",
" OOOOOOOOOOOOooooOOOOOOOOOOOOOO ",
" OOOOOOOOOOOooooooOOOOOOOOOOOOO ",
" O.....OOOOooOooOooOOOOO.....OO ",
" O......OOOoOOooOOoOOOO......OO ",
" O....OOOOOOOOooOOOOOOOOO....OO ",
" O.....OOOOOOOooOOOOOOOO.....OO ",
" O..O...OOOOOOooOOOOOOO...O..OO ",
" OO.OO...OOOOOooOOOOOO...OO.OOO ",
" OOOOOO...OOOOooOOOOO...OOOOOOO ",
" OOOOOOO...OOOooOOOO...OooOOOOO ",
" OOOOOOOO...OOooOOO...OOOooOOOO ",
" OOOOOOOOO...OooOO...OOOOOooOOO ",
" Oooooooooo...ooo...oooooooooOO ",
" Ooooooooooo...o...ooooooooooOO ",
" OOOOOOOOOOOO.....OOOOOOOOooOOO ",
" OOOOOOOOOOOOO...OOOOOOOOooOOOO ",
" OOOOOOOOOOOO.....OOOOOOooOOOOO ",
" OOOOOOOOOOO...o...OOOOOOOOOOOO ",
" OOOOOOOOOO...ooO...OOOOOOOOOOO ",
" OOOOOOOOO...OooOO...OOOOOOOOOO ",
" OOOOOOOO...OOooOOO...OOOOOOOOO ",
" OOOOOOO...OOOooOOOO...OOOOOOOO ",
" OOOOOO...OOOOooOOOOO...OOOOOOO ",
" OOOOO...OOOOOooOOOOOO...OOOOOO ",
" OOOO...OOOOOOooOOOOOOO...OOOOO ",
" OOO...OOOOOOOooOOOOOOOO...OOOO ",
"X OO..OOOOOOOOooOOOOOOOOO..OOO X",
"X  OOOOOOOOOOOOOOOOOOOOOOOOOO  X",
"XXX                          XXX"
};
