/* XPM */
static char *nodeMultiClassLDA_xpm[] = {
/* columns rows colors chars-per-pixel */
"32 32 6 1",
"  c black",
". c red",
"X c #008000",
"o c yellow",
"O c blue",
"+ c #C0C0C0",
/* pixels */
"ooo                          ooo",
"o  ++++++++++++++++++++++++++  o",
"o ++++++++++++OO++++++++++++++ o",
" ++++++++++++OOOO++++++++++++++ ",
" +++++++++++OOOOOO+++++++++++++ ",
" ++++++++++OO+OO+OO+++++.....++ ",
" ++++++++++O++OO++O++++......++ ",
" +++++++++++++OO+++++++++....++ ",
" +++++++++++++OO++++++++.....++ ",
" +++++XXXXX+++OO+++++++...+..++ ",
" +++++XXXXXX++OO++++++...++.+++ ",
" +++++XXXX++++OO+++++...+++++++ ",
" +++++XXXXX+++OO++++...+OO+++++ ",
" +++++XX+XXX++OO+++...+++OO++++ ",
" ++++++X++XXX+OO++...+++++OO+++ ",
" +OOOOOOOOOXXXOOO...OOOOOOOOO++ ",
" +OOOOOOOOOOXXXO...OOOOOOOOO+++ ",
" ++++++++++++XX...+++++++OO++++ ",
" +++++++++++++...+++++++OO+++++ ",
" ++++++++++++...XX+++++++++++++ ",
" +++++++++++...OXXX++++++++++++ ",
" ++++++++++...OO+XXX+++++++++++ ",
" +++++++++...+OO++XXX++++++++++ ",
" ++++++++...++OO+++XXX+++++++++ ",
" +++++++...+++OO++++XXX++++++++ ",
" ++++++...++++OO+++++XXX+++++++ ",
" +++++...+++++OO++++++XX+++++++ ",
" ++++...++++++OO+++++++++++++++ ",
" +++...+++++++OO+++++++++++++++ ",
"o ++..++++++++OO++++++++++++++ o",
"o  ++++++++++++++++++++++++++  o",
"ooo                          ooo"
};
