/* XPM */
static char *nodeRollup_xpm[] = {
/* columns rows colors chars-per-pixel */
"32 32 7 1",
"  c black",
". c green",
"X c #808000",
"o c yellow",
"O c navy",
"+ c blue",
"@ c gray100",
/* pixels */
"...                          ...",
".  @@@@@@@@@@@@@@@@@@@@@@@@@@  .",
". @@@@@@@@@@@@@@@@@@@@@@@@@@@@ .",
" @@@@@@@@@@@@@@@@@@@@@@@@@@@@@@ ",
" @@@@@@@@@@@@@@@@@@@@@@@@@@@@@@ ",
" @@@@@              @@@@@@@@@@@ ",
" @@@@ XX ooooooooooo @@@@@@@@@@ ",
" @@@@ XXX ooooooooooo @@@@@@@@@ ",
" @@@@     ooooo+ooooo @@@@@@@@@ ",
" @@@@@@@@ oooo+OOoooo @@@@@@@@@ ",
" @@@@@@@@ ooo+OOOOooo @@@@@@@@@ ",
" @@@@@@@@ oo+OOOOOOoo @@@@@@@@@ ",
" @@@@@@@@ oooo+OOoooo @@@@@@@@@ ",
" @@@@@@@@ oooo+OOoooo @@@@@@@@@ ",
" @@@@@@@@ oooo+OOoooo @@@@@@@@@ ",
" @@@@@@@@ oooo+OOoooo @@@@@@@@@ ",
" @@@@@@@@ oooo+OOoooo @@@@@@@@@ ",
" @@@@@@@@ oooooOOoooo @@@@@@@@@ ",
" @@@@@@@@ ooooooooooo @@@@@@@@@ ",
" @@@@@@@@ ooooooooooo @@@@@@@@@ ",
" @@@@@@@@ oo             @@@@@@ ",
" @@@@@@@@ o oo XXXXXXXXXX @@@@@ ",
" @@@@@@@@ o oo XXXXXXXXXXX @@@@ ",
" @@@@@@@@ oo   XXXXXXXXXXX @@@@ ",
" @@@@@@@@@ ooo XXXXXXXXXXX @@@@ ",
" @@@@@@@@@@               @@@@@ ",
" @@@@@@@@@@@@@@@@@@@@@@@@@@@@@@ ",
" @@@@@@@@@@@@@@@@@@@@@@@@@@@@@@ ",
" @@@@@@@@@@@@@@@@@@@@@@@@@@@@@@ ",
". @@@@@@@@@@@@@@@@@@@@@@@@@@@@ .",
".  @@@@@@@@@@@@@@@@@@@@@@@@@@  .",
"...                          ..."
};
