/* XPM */
static char *nodeConcatenation_xpm[] = {
/* columns rows colors chars-per-pixel */
"32 32 6 1",
"  c black",
". c blue",
"X c green",
"o c yellow",
"O c #C0C0C0",
"+ c gray100",
/* pixels */
"XXX                          XXX",
"X  ++++++++++++++++++++++++++  X",
"X ++++++++++++++++++++++++++++ X",
" ++++++++++++++++++++++++++++++ ",
" ++++++++++++++++++++++++++++++ ",
" +++       ++++++++++       +++ ",
" +++ ooooo O+++++++++ ooooo O++ ",
" +++ o o o O+++++++++ o o o O++ ",
" +++ ooooo O+++++++++ ooooo O++ ",
" +++ ooooo O+++++++++ ooooo O++ ",
" +++ o o o O+++++++++ o o o O++ ",
" +++ ooooo O+++++++++ ooooo O++ ",
" +++ ooooo O+++..++++ ooooo O++ ",
" +++ o o o O+++..O+++ o o o O++ ",
" +++ ooooo O+......++ ooooo O++ ",
" +++ ooooo O+......O+ ooooo O++ ",
" +++ o o o O++O..OOO+ o o o O++ ",
" +++ ooooo O+++..O+++ ooooo O++ ",
" +++ ooooo O++++OO+++ ooooo O++ ",
" +++ o o o O+++++++++ o o o O++ ",
" +++ ooooo O+++++++++ ooooo O++ ",
" +++ ooooo O+++++++++ ooooo O++ ",
" +++ o o o O+++++++++ o o o O++ ",
" +++ ooooo O+++++++++ ooooo O++ ",
" +++       O+++++++++       O++ ",
" ++++OOOOOOO++++++++++OOOOOOO++ ",
" ++++++++++++++++++++++++++++++ ",
" ++++++++++++++++++++++++++++++ ",
" ++++++++++++++++++++++++++++++ ",
"X ++++++++++++++++++++++++++++ X",
"X  ++++++++++++++++++++++++++  X",
"XXX                          XXX"
};
