/* XPM */
static char *nodeBasicMath_xpm[] = {
/* columns rows colors chars-per-pixel */
"32 32 7 1",
"  c black",
". c red",
"X c #008000",
"o c #808000",
"O c yellow",
"+ c blue",
"@ c gray100",
/* pixels */
"OOO                          OOO",
"O  @@@@@@@@@@@@@@@@@@@@@@@@@@  O",
"O @@@@@@@@@@@@@@@@@@@@@@@@@@@@ O",
" @@@@@@@@@@@@@@@@@@@@@@@@@@@@@@ ",
" @@@@@@@@@@@@@@@@@@@@@@@@@@@@@@ ",
" @@@XXXXXXXX@@@@@@.........@@@@ ",
" @@@@XX@@@XX@@@@@@.........@@@@ ",
" @@@@XX@@@@@@@@@@..@..@..@@@@@@ ",
" @@@@@XX@@@@@@@@@@@@..@..@@@@@@ ",
" @@@@@@XX@@@@@@@@@@@..@..@@@@@@ ",
" @@@@@@XX@@@@@@@@@@...@..@@@@@@ ",
" @@@@@XX@@XX@@@@@@@...@....@@@@ ",
" @@@@XX@@XXX@@@@@@...@@....@@@@ ",
" @@@XXXXXXXX@@@@@@...@@...@@@@@ ",
" @@@@@@@@@@@@@@@@@@@@@@@@@@@@@@ ",
" @@@@@@@@@@@@@@@@@@@@@@@@@@@@@@ ",
" @@@@@@@@@@@@@@@@@@@@@@@@@@@@@@ ",
" @@@@@@@@@@@@@@@@@@@@@@@@@@@@@@ ",
" @@@@@@@@@@@@@@@@@@@@@@@@@@@@@@ ",
" @@@@@++++@@++@@@@@@@@@@@@@@@@@ ",
" @@@@++@@++++@@@@@@@@oo@@@@@@@@ ",
" @@@++@@@++++@@@@@@@@oo@@@@@@@@ ",
" @@@++@@@@+++@@@@@@@@oo@@@@@@@@ ",
" @@@++@@@@++@@@@@@oooooooo@@@@@ ",
" @@@++@@@@++@@@@@@@@@oo@@@@@@@@ ",
" @@@@++@@+++@++@@@@@@oo@@@@@@@@ ",
" @@@@@++++@+++@@@@@@@oo@@@@@@@@ ",
" @@@@@@@@@@@@@@@@@@@@@@@@@@@@@@ ",
" @@@@@@@@@@@@@@@@@@@@@@@@@@@@@@ ",
"O @@@@@@@@@@@@@@@@@@@@@@@@@@@@ O",
"O  @@@@@@@@@@@@@@@@@@@@@@@@@@  O",
"OOO                          OOO"
};
