/* XPM */
static char *nodeOpenCV_xpm[] = {
/* columns rows colors chars-per-pixel */
"32 32 6 1",
"  c black",
". c blue",
"X c green",
"o c red",
"O c yellow",
"+ c gray100",
/* pixels */
"OOO                          OOO",
"O  ++++++++++++++++++++++++++  O",
"O +++++++++++ooooo++++++++++++ O",
" +++++++++++oooooooo+++++++++++ ",
" ++++++++++oooooooooo++++++++++ ",
" +++++++++oooooooooooo+++++++++ ",
" ++++++++oooooo++ooooo+++++++++ ",
" ++++++++ooooo++++ooooo++++++++ ",
" ++++++++oooo++++++oooo++++++++ ",
" ++++++++oooo++++++oooo++++++++ ",
" ++++++++ooooo++++ooooo++++++++ ",
" ++++++++ooooo++++oooo+++++++++ ",
" +++++++++oooo++++oooo+++++++++ ",
" ++++++++++oo++++++oo++++++++++ ",
" +++++++++++o++++++o+++++++++++ ",
" ++++++++++++++++++++++++++++++ ",
" ++++XXXXXX++++++++++++++++++++ ",
" +++XXXXXXX++++++++..++++++.+++ ",
" ++XXXXXXXX+++++++...+++++...++ ",
" +XXXXXXXX++++++++....++++....+ ",
" +XXXXX++++++++++.....++++....+ ",
" XXXXX+++++++++++....+++++..... ",
" XXXX++++++++++++....++++++.... ",
" XXXXX+++++XXXX++....+++++..... ",
" XXXXX++++XXXXX++.....++++..... ",
" +XXXXXXXXXXXXX++.............+ ",
" +XXXXXXXXXXXX++++............+ ",
" ++XXXXXXXXXX++++++..........++ ",
" +++XXXXXXXX++++++++........+++ ",
"O ++++XXXX++++++++++++....++++ O",
"O  ++++++++++++++++++++++++++  O",
"OOO                          OOO"
};
