/* XPM */
static char *nodeConfusionMatrix_xpm[] = {
/* columns rows colors chars-per-pixel */
"32 32 10 1",
"  c black",
". c red",
"X c #008000",
"o c green",
"O c #808000",
"+ c yellow",
"@ c blue",
"# c #808080",
"$ c #C0C0C0",
"% c gray100",
/* pixels */
"ooo                          ooo",
"o  %%%%%%%%%%%%%%%%%%%%%%%%%%  o",
"o %$$$$$$$$$$$$$$$$$$$$$$$$$$% o",
" %$$########################$$# ",
" %$#                        %$# ",
" %$# %%%%%%% %%%%%% %%%%%%% %$# ",
" %$# %@@@@@% %O+O+% %%%%%%% %$# ",
" %$# %@@@@@% %+O+O% %%%%%%% %$# ",
" %$# %@@@@@% %O+O+% %%%%%%% %$# ",
" %$# %@@@@@% %+O+O% %%%%%%% %$# ",
" %$# %@@@@@% %O+O+% %%%%%%% %$# ",
" %$# %%%%%%% %%%%%% %%%%%%% %$# ",
" %$#                        %$# ",
" %$# %%%%%%% %%%%%% %%%%%%% %$# ",
" %$# %%%%%%% %XXXX% %%%%%%% %$# ",
" %$# %%%%%%% %XXXX% %%%%%%% %$# ",
" %$# %%%%%%% %XXXX% %%%%%%% %$# ",
" %$# %%%%%%% %XXXX% %%%%%%% %$# ",
" %$# %%%%%%% %%%%%% %%%%%%% %$# ",
" %$#                        %$# ",
" %$# %%%%%%% %%%%%% %%%%%%% %$# ",
" %$# %@@@@.% %%%%%% %.....% %$# ",
" %$# %@@@..% %%%%%% %.....% %$# ",
" %$# %@@@..% %%%%%% %.....% %$# ",
" %$# %@@...% %%%%%% %.....% %$# ",
" %$# %@....% %%%%%% %.....% %$# ",
" %$# %%%%%%% %%%%%% %%%%%%% %$# ",
" %$#                        %$# ",
" %$$%%%%%%%%%%%%%%%%%%%%%%%%$$# ",
"o %$$$$$$$$$$$$$$$$$$$$$$$$$$# o",
"o  ##########################  o",
"ooo                          ooo"
};
