/* XPM */
static char *nodeDBSource_xpm[] = {
/* columns rows colors chars-per-pixel */
"32 32 6 1",
"  c black",
". c green",
"X c #808000",
"o c yellow",
"O c blue",
"+ c #808080",
/* pixels */
"................................",
"................................",
"................................",
"............           .........",
"........    XXXXXXXXXXX    .....",
"......  XXXXXXXXXXXXXXXXXXX  ...",
"..... XXXXXXXXXXXXXXXXXXXXXXX ..",
"..... XXXXXXXXXXXXXXXXXXXXXXX ..",
".....   XXXXXXXXXXXXXXXXXXX   ..",
"...++ oo    XXXXXXXXXXX    oo ..",
"..+++ oooooo           oooooo ..",
"..+++ ooooooooooooooooooooooo ..",
"..+++ ooooooooooooooooooooooo ..",
"..+++ oooooOOOOOooOOOOOoooooo ..",
"..+++ oooooOOooOOoOOooOOooooo ..",
"..+++   oooOOooOOoOOooOOooo   ..",
"..+++ oo  oOOooOOoOOOOOoo  oo ..",
"..+++ oooooOOooOOoOOooOOooooo ..",
"..+++ oooooOOooOOoOOooOOooooo ..",
"..+++ oooooOOooOOoOOooOOooooo ..",
"..+++ oooooOOOOOooOOOOOoooooo ..",
"..+++ ooooooooooooooooooooooo ..",
"..++++  ooooooooooooooooooo  ...",
"..++++++    ooooooooooo    .....",
"..++++++++++           ++++.....",
"..+++++++++++++++++++++++++.....",
"...+++++++++++++++++++++++......",
".....+++++++++++++++++++........",
".........+++++++++++............",
"................................",
"................................",
"................................"
};
