/* XPM */
static char *nodeBinaryOp_xpm[] = {
/* columns rows colors chars-per-pixel */
"32 32 7 1",
"  c black",
". c blue",
"X c green",
"o c red",
"O c yellow",
"+ c #C0C0C0",
"@ c gray100",
/* pixels */
"XXX                          XXX",
"X  @@@@@@@@@@@@@@@@@@@@@@@@@@  X",
"X @@@@@@@@@@@@@@@@@@@@@@@@@@@@ X",
" @@@@@@@       @@@@@@@@@@@@@@@@ ",
" @@@@@@@ OOOOO +@@@@@@@@@@@@@@@ ",
" @@@@@@@ O O O +@@@@.@@@@.@@@@@ ",
" @@@       OOO +@@@@..@@..+@@@@ ",
" @@@ OOOOO O O +@@@@@....+@@@@@ ",
" @@@ O O O OOO +@@@@@@..+@@@@@@ ",
" @@@ OOOOO O O +@@@@@....@@@@@@ ",
" @@@ O O O OOO +@@@@..++..@@@@@ ",
" @@@ OOOOO O O +@@@@.+@@@.+@@@@ ",
" @@@ O O O OOO +@@@@@+@@@@+@@@@ ",
" @@@ OOOOO     +@@@@@@@@@@@@@@@ ",
" @@@ O O O ++++o@@@@@@@@@@@@@@@ ",
" @@@ OOOOO +@@ooo@@@@@@@@@@@@@@ ",
" @@@       +@@@ooo@o@       @@@ ",
" @@@@+++++++@@@+oooo+ OOOOO @@@ ",
" @@@@@@@@@@@@@@@+ooo+ O O O +@@ ",
" @@@@@@@@@@@@@@@oooo+ OOOOO +@@ ",
" @@@@@..@@@@@@@@@++++ O O O +@@ ",
" @@@@@..+@@@@@@@@@@@@ OOOOO +@@ ",
" @@@......@@.....@@@@ O O O +@@ ",
" @@@......+@.....+@@@ OOOOO +@@ ",
" @@@@+..+++@@+++++@@@ O O O +@@ ",
" @@@@@..+@@@@@@@@@@@@ OOOOO +@@ ",
" @@@@@@++@@@@@@@@@@@@       +@@ ",
" @@@@@@@@@@@@@@@@@@@@@+++++++@@ ",
" @@@@@@@@@@@@@@@@@@@@@@@@@@@@@@ ",
"X @@@@@@@@@@@@@@@@@@@@@@@@@@@@ X",
"X  @@@@@@@@@@@@@@@@@@@@@@@@@@  X",
"XXX                          XXX"
};
