/* XPM */
static char *nodeRescale_xpm[] = {
/* columns rows colors chars-per-pixel */
"32 32 6 1",
"  c black",
". c red",
"X c green",
"o c blue",
"O c #808080",
"+ c #C0C0C0",
/* pixels */
"XXX                          XXX",
"X  ++++++++++++++++++++++++++  X",
"X ++++++++++++++++++++++++++++ X",
" ++++++++++++++++++++++++++++++ ",
" +++ ++O++O++O++o+o+++o+oO+++++ ",
" +++ ++O++O++O++oooooooooO+++++ ",
" +++ OOOOOOOOOOOo+oOOOo+oOOO+++ ",
" +++ ++O++O++O++o++O++O+oO+++++ ",
" +++ ++O++O++O++o++O++O+oO+++++ ",
" +++ OOOOOOOOOOOoOOOOOOOoOOO+++ ",
" +++ ++O++O++O++o++O++O+oO+++++ ",
" +++ ++O++O++O++o++O++O+oO+++++ ",
" +++ OOOOOOOOOOOoOOOOOOOoOOO+++ ",
" +++ ++O++O++O++o++O++O+oO+++++ ",
" +++ ++O++O++O+.o.+O++O+oO+++++ ",
" +++ OOOOOOOOO..o..OOOOOoOOO+++ ",
" +++ ++O++O++...o...++O+oO+++++ ",
" +++ ++O++O+..++o++..+O+oO+++++ ",
" +++ OOOOOOO..OOoOO..OOOoOOO+++ ",
" +++ ++O++O...++o++...O+oO+++++ ",
" +++ ++O++O..O++o++O..O+oO+++++ ",
" +++ OOOOO...OOOoOOO...OOOOO+++ ",
" +++ ++O++..+O++o++O+..++O+++++ ",
" +++ ++O+...+O++o++O+...+O+++++ ",
" +++ OOO...OOOOOoOOOOO...OOO+++ ",
" +++ .....O++O++o++O++O.....+++ ",
" +++ ....+O++O++o++O++O+....+++ ",
" +++                        +++ ",
" ++++++++++++++++++++++++++++++ ",
"X ++++++++++++++++++++++++++++ X",
"X  ++++++++++++++++++++++++++  X",
"XXX                          XXX"
};
