/* XPM */
static char *nodeTextFileSource_xpm[] = {
/* columns rows colors chars-per-pixel */
"32 32 8 1",
"  c black",
". c green",
"X c #808000",
"o c yellow",
"O c blue",
"+ c #808080",
"@ c #C0C0C0",
"# c gray100",
/* pixels */
"................................",
".....+++++++++..................",
"....+#########+.................",
"...+#o@o@o@o@o@+................",
"..+#o@o@o@o@o@o@+...............",
".+@@@@@@@@@@@@@@@++++++++++++...",
".+########################### ..",
".+#o@o@o@o@o@o@o@o@o@o@o@o@o@X .",
".+#@o@o@o@o@o@o@o@o@o@o@o@o@oX .",
".+#o@o@o@o@o@o@o@o@o@o@o@o@o@X .",
".+#@o@o@o@o@o@o@o@o@o@o@o@o@oX .",
".+#o@o@o@o@o@o@o@o@o@o@o@o@o@X .",
".+#@o@o@o@o@o@o@o@o@o@o@o@o@oX .",
".+#o@o@o@o@o@o@o@o@o@o@o@o@o@X .",
".+#@oOOOo@oOOOo@oOOOO@oOO@OOoX .",
".+#o@OOO@oOO@OOoOO@oOO@OOoOO@X .",
".+#@OOoOO@OOo@o@OOo@o@oOO@OOoX .",
".+#oOO@OOoOOOO@oOO@o@o@OOoOO@X .",
".+#@OOoOO@oOOOO@OOo@o@oOO@OOoX .",
".+#oOOOOOo@o@OOoOO@oOO@OOoOO@X .",
".+#OO@o@OOOOoOO@OOo@OOoOO@OOoX .",
".+#OOo@oOO@OOO@o@OOOOo@OOoOO@X .",
".+#@o@o@o@o@o@o@o@o@o@o@o@o@oX .",
".+#o@o@o@o@o@o@o@o@o@o@o@o@o@X .",
".+#@o@o@o@o@o@o@o@o@o@o@o@o@oX .",
".+#o@o@o@o@o@o@o@o@o@o@o@o@o@X .",
".+#@o@o@o@o@o@o@o@o@o@o@o@o@oX .",
".+#o@o@o@o@o@o@o@o@o@o@o@o@o@X .",
".++++++++++++++++++++++++++++X .",
"..                            ..",
"................................",
"................................"
};
