/* XPM */
static char *nodeDecisionTree_xpm[] = {
/* columns rows colors chars-per-pixel */
"32 32 5 1",
"  c black",
". c blue",
"X c cyan",
"o c yellow",
"O c #C0C0C0",
/* pixels */
"ooo                          ooo",
"o  OOOOOOOOOOOOOOOOOOOOOOOOOO  o",
"o OOOOOOOOOOOOOOOOOOOOOOOOOOOO o",
" OOOOOOOOOOOOOO OOOOOOOOOOOOOOO ",
" OOOOOOOOXOOOO   OOXOOOOOOOOOOO ",
" OOOOOOOOX.OO O O OX.OOOOOOOOOO ",
" OOOOOOOOX.OOOO OOOX.OOOOOOOOOO ",
" OOOOOOOOX.OOOO OOOX.OOOOOOOOOO ",
" OOOOOOOOX.OOOO OOOX.OOOOOOOOOO ",
" OOOOOOOOX.OOOO OOOX.OOOOOOOOOO ",
" OOOOOOOOX.OOOO OOOX.OOOOOOOOOO ",
" OOOOOOOOX.XXXX XXXX.XXXOOOOOOO ",
" OOOOOOOOX..... .........OOOOOO ",
" OOOOOOOOX.OOOO OOOOOOOOOO OOOO ",
" OOOOOOOOX.OOOO OOOOOOOOOOO OOO ",
" OO                          OO ",
" OOOOOOOOX.OOOO OOOOOOOOOOO OOO ",
" OOOOOOOOX.OOOO OOOOOOOOOO OOOO ",
" OOOOOOOOX.OOOO OOOOOOOOOOOOOOO ",
" OOOOOOOOX.OOOO OOOOOOOOOOOOOOO ",
" OOOOOOOOX.OOOO OOOOOOOOOOOOOOO ",
" OOOXXXXXX.XXXX XXXXXXXXXXOOOOO ",
" OOOO.......... ...........OOOO ",
" OOOOOOOOX.OOOO OOOOOOOOOOOOOOO ",
" OOOOOOOOX.OOOO OOOOOOOOOOOOOOO ",
" OOOOOOOOX.OOOO OOOOOOOOOOOOOOO ",
" OOOOOOOOX.OOOO OOOOOOOOOOOOOOO ",
" OOOOOOOOO.OOOO OOOOOOOOOOOOOOO ",
" OOOOOOOOOOOOOO OOOOOOOOOOOOOOO ",
"o OOOOOOOOOOOOOOOOOOOOOOOOOOOO o",
"o  OOOOOOOOOOOOOOOOOOOOOOOOOO  o",
"ooo                          ooo"
};
