/* XPM */
static char *nodeUnaryOp_xpm[] = {
/* columns rows colors chars-per-pixel */
"32 32 7 1",
"  c black",
". c blue",
"X c green",
"o c red",
"O c yellow",
"+ c #C0C0C0",
"@ c gray100",
/* pixels */
"XXX                          XXX",
"X  @@@@@@@@@@@@@@@@@@@@@@@@@@  X",
"X @@@@@@@@@@@@@@@@@@@@@@@@@@@@ X",
" @@@@@@@@@@@@@@@@@@@@@@@@@@@@@@ ",
" @@         @@@@@@@@@@@@@@@@@@@ ",
" @@ OOOOOOO +@@@@@@@.@@@@.@@@@@ ",
" @@ O O O O +@@@@@@@..@@..+@@@@ ",
" @@ OOOOOOO +@@@@@@@@....+@@@@@ ",
" @@ O O O O +@@@@@@@@@..+@@@@@@ ",
" @@ OOOOOOO +@@@@@@@@....@@@@@@ ",
" @@ O O O O +@@@@@@@..++..@@@@@ ",
" @@ OOOOOOO +@@@@@@@.+@@@.+@@@@ ",
" @@ O O O O +@o@@@@@@+@@@@+@@@@ ",
" @@ OOOOOOO +ooo@@@@@@@@@@@@@@@ ",
" @@         +@ooo@@@@@@@@@@@@@@ ",
" @@@+++++++++@+ooo@o@@@@@@@@@@@ ",
" @@@@@@@@@@@@@@+oooo+       @@@ ",
" @@@@@@@@@@@@@@@+ooo+ OOOOO @@@ ",
" @@@@@@@@@@@@@@@oooo+ O O O +@@ ",
" @@@@@@@@@@@@@@@@++++ OOOOO +@@ ",
" @@@@@..@@@@@@@@@@@@@ O O O +@@ ",
" @@@@@..+@@@@@@@@@@@@ OOOOO +@@ ",
" @@@......@@.....@@@@ O O O +@@ ",
" @@@......+@.....+@@@ OOOOO +@@ ",
" @@@@+..+++@@+++++@@@ O O O +@@ ",
" @@@@@..+@@@@@@@@@@@@ OOOOO +@@ ",
" @@@@@@++@@@@@@@@@@@@       +@@ ",
" @@@@@@@@@@@@@@@@@@@@@+++++++@@ ",
" @@@@@@@@@@@@@@@@@@@@@@@@@@@@@@ ",
"X @@@@@@@@@@@@@@@@@@@@@@@@@@@@ X",
"X  @@@@@@@@@@@@@@@@@@@@@@@@@@  X",
"XXX                          XXX"
};
