/* XPM */
static char *nodePRCurve_xpm[] = {
/* columns rows colors chars-per-pixel */
"32 32 8 1",
"  c black",
". c red",
"X c #008000",
"o c yellow",
"O c blue",
"+ c #808080",
"@ c #C0C0C0",
"# c gray100",
/* pixels */
"ooo                         oooo",
"o  #########################  oo",
"o #@@@@@@@@@@@@@@@@@@@@@@@@@# oo",
" #@@+++++++++++++++++++++++@@+ o",
" #@+                       #@+ o",
" #@+ ...OOOOOOOX@@@X@@@X@@ #@+ o",
" #@+ @.....OOOOOOO@X@@@X@@ #@+ o",
" #@+ XXX.....XXOOOOOXXXXXX #@+ o",
" #@+ @@X@@@....X@@OOO@@X@@ #@+ o",
" #@+ @@X@@@X@....@@XOO@X@@ #@+ o",
" #@+ @@X@@@X@@@...@X@OOX@@ #@+ o",
" #@+ XXXXXXXXXXXX..XXXOOXX #@+ o",
" #@+ @@X@@@X@@@X@@...@@OO@ #@+ o",
" #@+ @@X@@@X@@@X@@@..@@OO@ #@+ o",
" #@+ @@X@@@X@@@X@@@X..@OO@ #@+ o",
" #@+ XXXXXXXXXXXXXXX..XXOO #@+ o",
" #@+ @@X@@@X@@@X@@@X@..XOO #@+ o",
" #@+ @@X@@@X@@@X@@@X@@..OO #@+ o",
" #@+ @@X@@@X@@@X@@@X@@..@O #@+ o",
" #@+ XXXXXXXXXXXXXXXXXX..O #@+ o",
" #@+ @@X@@@X@@@X@@@X@@@..O #@+ o",
" #@+ @@X@@@X@@@X@@@X@@@..O #@+ o",
" #@+ @@X@@@X@@@X@@@X@@@X.. #@+ o",
" #@+ XXXXXXXXXXXXXXXXXXX.. #@+ o",
" #@+ @@X@@@X@@@X@@@X@@@X.. #@+ o",
" #@+ @@X@@@X@@@X@@@X@@@X@. #@+ o",
" #@+                       #@+ o",
" #@@#######################@@+ o",
"o #@@@@@@@@@@@@@@@@@@@@@@@@@+ oo",
"o  +++++++++++++++++++++++++  oo",
"ooo                         oooo",
"oooooooooooooooooooooooooooooooo"
};
