/* XPM */
static char *nodeLinear_xpm[] = {
/* columns rows colors chars-per-pixel */
"32 32 5 1",
"  c black",
". c blue",
"X c cyan",
"o c yellow",
"O c #C0C0C0",
/* pixels */
"ooo                          ooo",
"o  OOOOOOOOOOOOOOOOOOOOOOOOOO  o",
"o OOOOOOOOOOOOOOOOOOOOOOOOOOOO o",
" OOOOOOOOOOOOOO OOOOOOOOOOOOOOO ",
" OOOOOOOOOOOOO   OOOOOOOOOOOOOO ",
" OOOOOOOOOOOO O O OOOOOOOX.OOOO ",
" OOOOOOOOOOOOOO OOOOOOOOX.OOOOO ",
" OOOOOOOOOOOOOO OOOOOOOX.OOOOOO ",
" OOOOOOOOOOOOOO OOOOOOX.OOOOOOO ",
" OOOOOOOOOOOOOO OOOOOX.OOOOOOOO ",
" OOOOOOOOOOOOOO OOOOX.OOOOOOOOO ",
" OOOOOOOOOOOOOO OOOX.OOOOOOOOOO ",
" OOOOOOOOOOOOOO OOX.OOOOOOOOOOO ",
" OOOOOOOOOOOOOO OX.OOOOOOO OOOO ",
" OOOOOOOOOOOOOO X.OOOOOOOOO OOO ",
" OO                          OO ",
" OOOOOOOOOOOOOX OOOOOOOOOOO OOO ",
" OOOOOOOOOOOOX. OOOOOOOOOO OOOO ",
" OOOOOOOOOOOX.O OOOOOOOOOOOOOOO ",
" OOOOOOOOOOX.OO OOOOOOOOOOOOOOO ",
" OOOOOOOOOX.OOO OOOOOOOOOOOOOOO ",
" OOOOOOOOX.OOOO OOOOOOOOOOOOOOO ",
" OOOOOOOX.OOOOO OOOOOOOOOOOOOOO ",
" OOOOOOX.OOOOOO OOOOOOOOOOOOOOO ",
" OOOOOX.OOOOOOO OOOOOOOOOOOOOOO ",
" OOOOX.OOOOOOOO OOOOOOOOOOOOOOO ",
" OOOX.OOOOOOOOO OOOOOOOOOOOOOOO ",
" OOOOOOOOOOOOOO OOOOOOOOOOOOOOO ",
" OOOOOOOOOOOOOO OOOOOOOOOOOOOOO ",
"o OOOOOOOOOOOOOOOOOOOOOOOOOOOO o",
"o  OOOOOOOOOOOOOOOOOOOOOOOOOO  o",
"ooo                          ooo"
};
