/* XPM */
static char *nodeFeatureGeneration_xpm[] = {
/* columns rows colors chars-per-pixel */
"32 32 5 1",
"  c black",
". c #800000",
"X c yellow",
"o c blue",
"O c gray100",
/* pixels */
"XXX                          XXX",
"X  OOOOOOOOOOOOOOOOOOOOOOOOOO  X",
"X OOOOOOOOOOOOOOOOOOOOOOOOOOOO X",
" OOOOOOOOOOOOOOOOOOOOOOOOOOOOOO ",
" OOOOOOOOOOOOOOOOooOOOOoOOOOOOO ",
" OOOOOOOOOOOOOOOoOOoOOOoOOOOOOO ",
" OOOOoooOOOOOOOOOOOoOOoOooOOOOO ",
" OOOoOOoOoooooOOOOoOOOooOOoOOOO ",
" OOOOOOoOOOOOOOOOoOOOOoOOOoOOOO ",
" OOooooOOoooooOOoOOOOOoOOOoOOOO ",
" OOoOOoOOOOOOOOoOOOOOooOOoOOOOO ",
" OOooooOOOOOOOOooooOOoOooOOOOOO ",
" OOOOOOOOOOOOOOOOOOOOOOOOOOOOOO ",
" OOOOOOOOOOOOOOOOOOOOOOOOOOOOOO ",
" OOOOOOOOOOOOOOOOOOOOOOOOOOOOOO ",
" OOOOOOOOOOOOOOOOOOOOOOOOOOOOOO ",
" OOOO.OOOOOOOOOOOOO.OOOO.OOOOOO ",
" OOOO.OOOOOOOOOOOO..OOO.OOOOOOO ",
" OOO.O..OOOOOOOOO.O.OOO.OOO..OO ",
" OOO..OO.O.....OOOO.OO.OOO.OO.O ",
" OOO.OOO.OOOOOOOOOO.OO.OO.OOOOO ",
" OOO.OOO.O.....OOO.OO.OOO.OOOOO ",
" OO..OO.OOOOOOOOOO.OO.OOO.OO.OO ",
" OO.O..OOOOOOOOOOO.O.OOOOO..OOO ",
" OOOOOOOOOOOOOOOOOOOOOOOOOOOOOO ",
" OOOOOOOOOOOOOOOOOOOOOOOOOOOOOO ",
" OOOOOOOOOOOOOOOOOOOOOOOOOOOOOO ",
" OOOOOOOOOOOOOOOOOOOOOOOOOOOOOO ",
" OOOOOOOOOOOOOOOOOOOOOOOOOOOOOO ",
"X OOOOOOOOOOOOOOOOOOOOOOOOOOOO X",
"X  OOOOOOOOOOOOOOOOOOOOOOOOOO  X",
"XXX                          XXX"
};
