/* XPM */
static char *nodePython_xpm[] = {
/* columns rows colors chars-per-pixel */
"32 32 16 1",
"  c black",
". c green",
"X c #E0C040",
"o c #E0E040",
"O c #406080",
"+ c #4060C0",
"@ c #4080C0",
"# c #608DC0",
"$ c #808080",
"% c #A0A0A4",
"& c #E0E080",
"* c #80A0C0",
"= c #A0A0C0",
"- c #A0C4D4",
"; c #C0CFC0",
": c #FFFFFE",
/* pixels */
"...                          ...",
". ::::::::::::::%::::::::::::: .",
". :::::::::::%::%::::::::::::: .",
" ::;%%;:%::%:$%:$%%::%%%::%%;:: ",
" ::$::$:$::$:%::$:;%;;:%%$::$:: ",
" ::$::$;$::$:$::%::%%;:;%$::$:: ",
" ::$::$:$::$:%::%::%%%:;;$::$:: ",
" ::$%%%:%%%$:;%:%::%:%%%:$::$:: ",
" ::$:::::::$::::::::::::::::::: ",
" ::$::::::;%::::::::::::::::::: ",
" ::;:::::;::::::::::::::::::::: ",
" ::::::::::::;--%-;:::::::::::: ",
" :::::::::::+@+OOOO#::::::::::: ",
" ::::::::::**:@OOOOO=:::::::::: ",
" ::::::::::*#-@OOOOO*:::::::::: ",
" ::::::::::*+@@@OOOO*:::::::::: ",
" :::::::--******OOOO*&&&::::::: ",
" ::::::*@@@@@@+OOOOO*oXX&:::::: ",
" ::::::@@@@@@@+OOOOO*oXXX:::::: ",
" :::::-@@@@@@@@OOOOO-XXXX&::::: ",
" :::::*@@@@@@@@@@@@*&XXXX&::::: ",
" :::::*@@@@@;&&&&&&oXXXXX&::::: ",
" :::::-@@@@;ooooooXXXXXXX&::::: ",
" :::::-@@@@&ooooooXXXXXXX:::::: ",
" ::::::@@@#&ooooooXXXXXXX:::::: ",
" ::::::;#+#&oooooooXXXXo::::::: ",
" ::::::::::&oooo&&&&&:::::::::: ",
" ::::::::::&oooooo&X&:::::::::: ",
" ::::::::::oooooo&:&o:::::::::: ",
". ::::::::::oooooo&o:::::::::: .",
". :::::::::::&&ooo&::::::::::: .",
"..                            .."
};
