/* XPM */
static char *nodeScatterPlot_xpm[] = {
/* columns rows colors chars-per-pixel */
"32 32 9 1",
"  c black",
". c red",
"X c #008000",
"o c green",
"O c yellow",
"+ c blue",
"@ c #808080",
"# c #C0C0C0",
"$ c gray100",
/* pixels */
"OOO                          OOO",
"O  $$$$$$$$$$$$$$$$$$$$$$$$$$  O",
"O $##########################$ O",
" $##@@@@@@@@@@@@@@@@@@@@@@@@##@ ",
" $#@                        $#@ ",
" $#@ ###X###X###o##oX###X## $#@ ",
" $#@ ###X###X###X###X###X## $#@ ",
" $#@ XXXXXXXXXXXXXXXXXXXXXX $#@ ",
" $#@ ###X###X###Xo##o##oX## $#@ ",
" $#@ ##.X##.X#o#X#o#X###X## $#@ ",
" $#@ ###X###X###X###X###X## $#@ ",
" $#@ XXXXXXXXXXXXoXoXXXXXXX $#@ ",
" $#@ ###X##.X##oX###X###X## $#@ ",
" $#@ ###X###X#.#X#o#X+##X## $#@ ",
" $#@ ###X.##X###X###X##+X## $#@ ",
" $#@ XXXXXXXXX.XXXXXXXXXXXX $#@ ",
" $#@ ##.X###X###X#+#X###X## $#@ ",
" $#@ ###X###X###+###X###X## $#@ ",
" $#@ ###X#.#X#+#X###X###X## $#@ ",
" $#@ XXXXXXXXXXXX+XXX+XXXXX $#@ ",
" $#@ ###X###X###X###X###X## $#@ ",
" $#@ ###X###X###X#+#X###X## $#@ ",
" $#@ ###X###X#+#X###X###X## $#@ ",
" $#@ XXXXXXXXXXXXXXXXXXXXXX $#@ ",
" $#@ ###X###X###X###X###X## $#@ ",
" $#@ ###X###X###X###X###X## $#@ ",
" $#@ ###X###X###X###X###X## $#@ ",
" $#@                        $#@ ",
" $##$$$$$$$$$$$$$$$$$$$$$$$$##@ ",
"O $##########################@ O",
"O  @@@@@@@@@@@@@@@@@@@@@@@@@@  O",
"OOO                          OOO"
};
