/* XPM */
static char *nodeGaussian_xpm[] = {
/* columns rows colors chars-per-pixel */
"32 32 8 1",
"  c black",
". c #008000",
"X c green",
"o c yellow",
"O c magenta",
"+ c #008080",
"@ c cyan",
"# c #C0C0C0",
/* pixels */
"ooo                          ooo",
"o  ##########################  o",
"o ############################ o",
" #################  ########### ",
" ################ XX ########## ",
" ############### XXXX ###  #### ",
" ########   #### XXXX ## OO ### ",
" ####### @@@ ## XXXXXX # OO ### ",
" ###### @@@@@ # XXXXXXX OOOO ## ",
" ####  @@@@@@@  XXXXXX  OOOOO # ",
" ##  @@@@@@@@ ++  XXX .. OOOOO  ",
"   @@@@@@@@  +++++   ....  OOOO ",
"                                ",
" ############################## ",
" ############################## ",
" ##############        ######## ",
" ##########    XXXXXXXX    #### ",
" ######### XXXXXXXXXXXXXX   ### ",
" ########     XXXXXXXXXX ... ## ",
" ####### +++++   XXXXXX ....    ",
" ###       ++++++  XXX .... OOO ",
" #  @@@@@@@    ++++    .   OOOO ",
"  @@@@@@@@@@@@@     ### OOOOOOO ",
" @@@@@@@@@@@@@@@@@@ ### OOOOOOO ",
"  @@@@@@@@@@@@@@@@@ #### OOOOOO ",
" #  @@@@@@@@@@@@@  #####  OOO   ",
" ###    @@@@@    #########   ## ",
" #######     ################## ",
" ############################## ",
"o ############################ o",
"o  ##########################  o",
"ooo                          ooo"
};
