/* XPM */
static char *nodeOpenCVSource_xpm[] = {
/* columns rows colors chars-per-pixel */
"32 32 10 1",
"  c black",
". c red",
"X c green",
"o c #808000",
"O c yellow",
"+ c blue",
"@ c cyan",
"# c #808080",
"$ c #C0C0C0",
"% c gray100",
/* pixels */
"@@@@@@@@@@@@@@@@@@@@@@@@@@@@@@@@",
"@@@@@#########@@@@@@@@@@@@@@@@@@",
"@@@@#%%%%%%%%%#@@@@@@@@@@@@@@@@@",
"@@@#%O$O$O$O$O$#@@@@@@@@@@@@@@@@",
"@@#%O$O$O$O$O$O$#@@@@@@@@@@@@@@@",
"@#$$$$$$$$$$$$$$$############@@@",
"@#%%%%%%%%%%%%%%%%%%%%%%%%%%% @@",
"@#%O$O$O$O$O$O$O$O$O$O$O$O$O$o @",
"@#%$O$+++++$++O$O$O++$O$O$O$Oo @",
"@#%O$++O$O+O$++O$O++$O$O$O$O$o @",
"@#%$++O$O$O$O++$O$++O$O$O$O$Oo @",
"@#%O++$O$O$O$++O$O++$O$O$O$O$o @",
"@#%$++O$O$O$O$++O++$O$O$O$O$Oo @",
"@#%O++$O$O$O$O++$++O$O$O$O$O$o @",
"@#%$++O$O$O$O$+++++$O$O$O$O$Oo @",
"@#%O$++O$O+O$O$+++$O$O$O$O$O$o @",
"@#%$O$+++++$O$O+++O$...$O$O$Oo @",
"@#%O$O$O$O$O$O$O$O$.....$O$O$o @",
"@#%$O$O$O$O$O$O$O$O..$..O$O$Oo @",
"@#%O$O$O$O$O$O$O$O$..O..$O$O$o @",
"@#%$O$O$O$O$O$O$O$O$.$.$O$O$Oo @",
"@#%O$O$O$O$O$O$O$O$O$O$O$O$O$o @",
"@#%$O$O$O$O$O$O$OXXXO$O$+$+$Oo @",
"@#%O$O$O$O$O$O$OXXXXXO$++O++$o @",
"@#%$O$O$O$O$O$O$XXO$O$O++$++Oo @",
"@#%O$O$O$O$O$O$OXXXXXO$+++++$o @",
"@#%$O$O$O$O$O$O$OXXXO$O$+++$Oo @",
"@#%O$O$O$O$O$O$O$O$O$O$O$O$O$o @",
"@############################o @",
"@@                            @@",
"@@@@@@@@@@@@@@@@@@@@@@@@@@@@@@@@",
"@@@@@@@@@@@@@@@@@@@@@@@@@@@@@@@@"
};
