/* XPM */
static char *nodeDataExplorer_xpm[] = {
/* columns rows colors chars-per-pixel */
"32 32 11 1",
"  c black",
". c #800000",
"X c red",
"o c #008000",
"O c green",
"+ c yellow",
"@ c navy",
"# c blue",
"$ c #808080",
"% c #C0C0C0",
"& c gray100",
/* pixels */
"+++                          +++",
"+  &&&&&&&&&&&&&&&&&&&&&&&&&&  +",
"+ &%%%%%%%%%%%%%%%%%%%%%%%%%%& +",
" &%%$$$$$$$$$$$$$$$$$$$$$$$$%%$ ",
" &%$                        &%$ ",
" &%$                        &%$ ",
" &%$        . .             &%$ ",
" &%$   X.     O O           &%$ ",
" &%$  XXX . oOoO     @@@@   &%$ ",
" &%$  XXX. O OOO o   @@@@   &%$ ",
" &%$  X.... oOo # # #@#@@@@ &%$ ",
" &%$  X...XO ooOOO#####@@@  &%$ ",
" &%$  ..    o ooO O ###@@@  &%$ ",
" &%$    X.    ooO ### @@@   &%$ ",
" &%$          ooo   ##@@    &%$ ",
" &%$            ooOo @      &%$ ",
" &%$    X X X X oo   @ @    &%$ ",
" &%$        X.X Oo          &%$ ",
" &%$    XX XX        @      &%$ ",
" &%$      X XXX             &%$ ",
" &%$     XX.XX.X....        &%$ ",
" &%$      .............     &%$ ",
" &%$      .    .....        &%$ ",
" &%$                        &%$ ",
" &%$ %%                     &%$ ",
" &%$                        &%$ ",
" &%$ %%%                    &%$ ",
" &%$                        &%$ ",
" &%%&&&&&&&&&&&&&&&&&&&&&&&&%%$ ",
"+ &%%%%%%%%%%%%%%%%%%%%%%%%%%$ +",
"+  $$$$$$$$$$$$$$$$$$$$$$$$$$  +",
"+++                          +++"
};
