/* XPM */
static char *nodeDirSink_xpm[] = {
/* columns rows colors chars-per-pixel */
"32 32 8 1",
"  c black",
". c green",
"X c red",
"o c #808000",
"O c yellow",
"+ c #808080",
"@ c #C0C0C0",
"# c gray100",
/* pixels */
"................................",
".....+++++++++..................",
"....+#########+.................",
"...+#O@O@O@O@O@+................",
"..+#O@O@O@O@O@O@+...............",
".+@@@@@@@@@@@@@@@++++++++++++...",
".+########################### ..",
".+#O@O@O@O@O@O@O@O@O@O@O@O@O@o .",
".+#@O@O@O@O@O@O@O@O@O@O@O@O@Oo .",
".+#O@O@O@O@O@O@O@O@O@O@O@O@O@o .",
".+#@O@O@O@O@O@O@O@O@O@O@O@O@Oo .",
".+#O@O@O@O@O@O@O@O@O@O@O@O@O@o .",
".+#@O@O@O@O@O@O@O@O@O@O@O@O@Oo .",
".+#O@XXXXXXO@O@XXO@XXXXXXO@O@o .",
".+#@OXXXXXXXO@OXX@OXXXXXXXO@Oo .",
".+#O@XXO@OXXXO@XXO@XXO@OXX@O@o .",
".+#@OXX@O@OXX@OXX@OXX@O@XXO@Oo .",
".+#O@XXO@O@XXO@XXO@XXXXXXO@O@o .",
".+#@OXX@O@OXX@OXX@OXXXXXX@O@Oo .",
".+#O@XXO@OXXXO@XXO@XXO@OXX@O@o .",
".+#@OXXXXXXXO@OXX@OXX@O@XXO@Oo .",
".+#O@XXXXXXO@O@XXO@XXO@O@XXO@o .",
".+#@O@O@O@O@O@O@O@O@O@O@O@O@Oo .",
".+#O@O@O@O@O@O@O@O@O@O@O@O@O@o .",
".+#@O@O@O@O@O@O@O@O@O@O@O@O@Oo .",
".+#O@O@O@O@O@O@O@O@O@O@O@O@O@o .",
".+#@O@O@O@O@O@O@O@O@O@O@O@O@Oo .",
".+#O@O@O@O@O@O@O@O@O@O@O@O@O@o .",
".++++++++++++++++++++++++++++o .",
"..                            ..",
"................................",
"................................"
};
