/* XPM */
static char *nodeSVM_xpm[] = {
/* columns rows colors chars-per-pixel */
"32 32 10 1",
"  c black",
". c #008000",
"X c green",
"o c yellow",
"O c #800080",
"+ c magenta",
"@ c #008080",
"# c cyan",
"$ c #808080",
"% c #C0C0C0",
/* pixels */
"ooo                          ooo",
"o  %%%%%%%%%%$%%%%%%%%%%%%%%%  o",
"o %%%%%%%%%%%$%%%%%%%%%%%%%%$% o",
" %%%%%%%%%%%%$%%%%%%%%%%%%%%$%% ",
" %%%%%%%%%%%$%%%%%%%%%%%%%%$%%% ",
" %%%%%%%%%%%$%%%%%%%   %%%%$%%% ",
" %%%%%   %%%$%%%%%% O+O %%$%%%% ",
" %%%% @#@ %%$%%%%%% +++ %%$%%%% ",
" %%%% ### %%$%%%%%% O+O %$%%%%% ",
" %%%% @#@ %%$%%%%%%%   %%$%%%%% ",
" %%%%%   %%$%%%%%%%%%%%%$%%%%%% ",
" %%%%%%%%%%$%%%%%%%%%%%%$%%%%%% ",
" %%%%%%%%%%$%%%%%%%%%%%$%%%%%%% ",
" %%%%%%%%%%$%%%%%%%%%%%$%%%%%%% ",
" %%%%%%%%%%$%%   %%%%%$%%   %%% ",
" %%%%%%%%%%$% O+O %%%%$% .X. %% ",
" %%%%%%%%%$%% +++ %%%$%% XXX %% ",
" %%%%%%%%%$%% O+O %%%$%% .X. %% ",
" %%%%%%%%%$%%%   %%%$%%%%   %%% ",
" %%%%%%%%%$%%%%%%%%%$%%%%%%%%%% ",
" %%%%%%%%%$%%%%%%%%$%%%%%%%%%%% ",
" %%%%%%%%%$%%%%%%%%$%%%%%%%%%%% ",
" %%%%%%%%$%%%%%%%%$%%%%%%%%%%%% ",
" %%%   %%$%%%%%%%%$%%%%%%%%%%%% ",
" %% @#@ %$%%%%%%%$%   %%%%%%%%% ",
" %% ### %$%%%%%%%$ .X. %%%%%%%% ",
" %% @#@ %$%%%%%%$% XXX %%%%%%%% ",
" %%%   %%$%%%%%%$% .X. %%%%%%%% ",
" %%%%%%%$%%%%%%$%%%   %%%%%%%%% ",
"o %%%%%%$%%%%%%$%%%%%%%%%%%%%% o",
"o  %%%%%$%%%%%$%%%%%%%%%%%%%%  o",
"ooo                          ooo"
};
