/* XPM */
static char *progressbar_xpm[] = {
/* columns rows colors chars-per-pixel */
"146 16 2 1",
"  c navy",
". c blue",
/* pixels */
"                                                                                                                                                  ",
"                                       ..                                               ..                                                ..      ",
"                           .........  ...                                   .........  ...                                    .........  ...      ",
"                         ............  .                                  ............  .                                   ............  .       ",
"                        ..............                                   ..............                                    ..............         ",
"                  ..    .............. ...                         ..    .............. ...                          ..    .............. ...     ",
"            ...  ...    .............. ...                   ...  ...    .............. ...                    ...  ...    .............. ...     ",
"           ..... ..      ....   ......                      ..... ..      ....   ......                       ..... ..      ....   ......         ",
"   ....   ......                 ..... ..           ....   ......                 ..... ..            ....   ......                 ..... ..      ",
"  .............. ...              ...  ...         .............. ...              ...  ...          .............. ...              ...  ...     ",
"  .............. ...                    ..         .............. ...                    ..          .............. ...                    ..     ",
"  ..............                                   ..............                                    ..............                               ",
"   ............  .                                  ............  .                                   ............  .                             ",
"     .........  ...                                   .........  ...                                    .........  ...                            ",
"                 ..                                               ..                                                ..                            ",
"                                                                                                                                                  "
};
